<svg viewBox="0 0 24 24" xmlns="http://www.w3.org/2000/svg"><path d="m18.651 19.252c.704 1.005.96 2.039.573 2.31s-1.271-.324-1.975-1.329a5.039 5.039 0 0 1 -.584-1.082 8.572 8.572 0 0 1 -3.898 1.4c.081.34.13.737.13 1.166 0 1.227-.383 2.221-.856 2.221s-.856-.994-.856-2.221c0-.42.047-.807.125-1.142a8.568 8.568 0 0 1 -3.944-1.284c-.127.301-.3.621-.524.942-.704 1.005-1.588 1.6-1.975 1.329s-.131-1.305.573-2.31a5.12 5.12 0 0 1 .743-.85 8.53 8.53 0 0 1 -1.309-1.479l1.124-.782a7.2 7.2 0 0 0 5.908 3.088 7.2 7.2 0 0 0 5.916-3.098l1.125.78a8.567 8.567 0 0 1 -1.183 1.366c.296.241.605.573.887.975zm-12.374-13.629a8.587 8.587 0 0 0 -1.566 1.807l1.15.743a7.17 7.17 0 0 1 6.046-3.293 7.144 7.144 0 0 1 6.151 3.461l1.17-.711a8.658 8.658 0 0 0 -1.56-1.895c.324-.245.671-.603.983-1.049.704-1.005.96-2.039.573-2.31s-1.271.324-1.975 1.329c-.294.419-.504.84-.627 1.212a8.488 8.488 0 0 0 -3.9-1.364c.108-.372.175-.83.175-1.333 0-1.226-.383-2.22-.856-2.22s-.856.994-.856 2.221c0 .491.063.941.167 1.308a8.521 8.521 0 0 0 -3.93 1.247 4.991 4.991 0 0 0 -.58-1.071c-.703-1.005-1.587-1.599-1.974-1.328s-.131 1.305.573 2.31c.265.378.556.698.836.936zm-5.777 9.649h1.648v-2.472h1.859v2.473h1.648v-6.23h-1.647v2.319h-1.86v-2.319h-1.648zm6.536-6.229v6.229h4.121v-1.38h-2.473v-1.112h2.032v-1.38h-2.032v-.978h2.377v-1.38zm5.328 0v6.229h4.006v-1.38h-2.358v-4.849zm5.079 0v6.229h1.514v-1.84c0-.16-.008-.335-.024-.527a53.436 53.436 0 0 0 -.053-.589 16.516 16.516 0 0 0 -.067-.589 46.795 46.795 0 0 1 -.067-.517h.038l.498 1.457.863 2.099h.613l.862-2.099.517-1.457h.038l-.067.518c-.026.192-.048.388-.067.589s-.037.398-.053.589a6.375 6.375 0 0 0 -.024.527v1.84h1.536v-6.23h-1.706l-.939 2.588-.345 1.016h-.038l-.345-1.016-.978-2.588z"/></svg>